name analog
datacolumns 19
datarows 47
range 0.0 0.023
endheader
time	ground_force_vx	ground_force_vy	ground_force_vz	ground_force_px	ground_force_py	ground_force_pz	l_ground_force_vx	l_ground_force_vy	l_ground_force_vz	l_ground_force_px	l_ground_force_py	l_ground_force_pz	ground_torque_x	ground_torque_y	ground_torque_z	l_ground_torque_x	l_ground_torque_y	l_ground_torque_z
0.0	-0.0	-0.0	-0.0	-0.0	-0.0	-0.0	11.776673316955566	-51.55767822265625	-968.546630859375	-0.0	-0.0	-0.0	-0.0	-0.0	-0.0	319415.25	-70872.9765625	5349.56884765625
0.0005	-0.0	-0.0	-0.0	-0.0	-0.0	-0.0	11.865533828735352	-51.42483901977539	-966.8887329101562	-0.0	-0.0	-0.0	-0.0	-0.0	-0.0	318499.0625	-70621.2578125	5401.4921875
0.001	-0.0	-0.0	-0.0	-0.0	-0.0	-0.0	11.910516738891602	-50.49945068359375	-963.309326171875	-0.0	-0.0	-0.0	-0.0	-0.0	-0.0	317653.78125	-70066.2578125	5231.49365234375
0.0015	-0.0	-0.0	-0.0	-0.0	-0.0	-0.0	11.998421669006348	-50.719017028808594	-960.865234375	-0.0	-0.0	-0.0	-0.0	-0.0	-0.0	316871.375	-69597.21875	5179.73095703125
0.002	-0.0	-0.0	-0.0	-0.0	-0.0	-0.0	12.398347854614258	-50.19048690795898	-957.2017822265624	-0.0	-0.0	-0.0	-0.0	-0.0	-0.0	315717.1875	-68791.1484375	5276.2685546875
0.0025	-0.0	-0.0	-0.0	-0.0	-0.0	-0.0	11.864656448364258	-50.03342056274414	-955.4437255859376	-0.0	-0.0	-0.0	-0.0	-0.0	-0.0	314436.125	-68311.3828125	5143.26513671875
0.003	-0.0	-0.0	-0.0	-0.0	-0.0	-0.0	12.28736686706543	-49.747650146484375	-949.083251953125	-0.0	-0.0	-0.0	-0.0	-0.0	-0.0	313013.9375	-67837.8515625	5217.59130859375
0.0035	-0.0	-0.0	-0.0	-0.0	-0.0	-0.0	12.219388961791992	-49.76823043823242	-944.7149658203124	-0.0	-0.0	-0.0	-0.0	-0.0	-0.0	311691.71875	-67057.921875	5365.24072265625
0.004	-0.0	-0.0	-0.0	-0.0	-0.0	-0.0	12.59455394744873	-49.63916015625	-942.71875	-0.0	-0.0	-0.0	-0.0	-0.0	-0.0	310478.03125	-66326.15625	5254.49853515625
0.0045000000000000005	-0.0	-0.0	-0.0	-0.0	-0.0	-0.0	12.465154647827148	-49.833587646484375	-939.8466186523438	-0.0	-0.0	-0.0	-0.0	-0.0	-0.0	309315.46875	-65769.0	5402.6943359375
0.005	-0.0	-0.0	-0.0	-0.0	-0.0	-0.0	12.837346076965332	-49.89893341064453	-936.075439453125	-0.0	-0.0	-0.0	-0.0	-0.0	-0.0	308062.15625	-64918.359375	5276.65478515625
0.0055	-0.0	-0.0	-0.0	-0.0	-0.0	-0.0	12.087621688842772	-49.72511291503906	-934.1490478515624	-0.0	-0.0	-0.0	-0.0	-0.0	-0.0	307078.0625	-64059.70703125	5209.1611328125
0.006	-0.0	-0.0	-0.0	-0.0	-0.0	-0.0	11.998961448669434	-50.11761474609375	-929.8038330078124	-0.0	-0.0	-0.0	-0.0	-0.0	-0.0	306089.40625	-63102.70703125	4988.16259765625
0.006500000000000001	-0.0	-0.0	-0.0	-0.0	-0.0	-0.0	11.026816368103027	-50.05183410644531	-926.50927734375	-0.0	-0.0	-0.0	-0.0	-0.0	-0.0	305371.84375	-62155.44921875	4755.60498046875
0.007	-0.0	-0.0	-0.0	-0.0	-0.0	-0.0	10.49485206604004	-49.92096710205078	-924.8875732421876	-0.0	-0.0	-0.0	-0.0	-0.0	-0.0	304376.03125	-61140.69921875	4386.34619140625
0.0075	-0.0	-0.0	-0.0	-0.0	-0.0	-0.0	9.40738582611084	-49.924842834472656	-922.883056640625	-0.0	-0.0	-0.0	-0.0	-0.0	-0.0	303499.4375	-60139.16796875	4073.49072265625
0.008	-0.0	-0.0	-0.0	-0.0	-0.0	-0.0	8.628207206726074	-49.59478759765625	-921.336669921875	-0.0	-0.0	-0.0	-0.0	-0.0	-0.0	302774.53125	-59487.55859375	3621.779296875
0.0085	-0.0	-0.0	-0.0	-0.0	-0.0	-0.0	7.297595500946045	-49.06495666503906	-921.0262451171876	-0.0	-0.0	-0.0	-0.0	-0.0	-0.0	302265.875	-58392.0546875	3204.23876953125
0.009000000000000001	-0.0	-0.0	-0.0	-0.0	-0.0	-0.0	6.433925628662109	-48.37701416015625	-920.1253662109376	-0.0	-0.0	-0.0	-0.0	-0.0	-0.0	302126.625	-57849.2265625	2810.37158203125
0.0095	-0.0	-0.0	-0.0	-0.0	-0.0	-0.0	5.920178413391113	-47.23380661010742	-920.1791381835938	-0.0	-0.0	-0.0	-0.0	-0.0	-0.0	302257.96875	-57072.21484375	2491.831787109375
0.01	-0.0	-0.0	-0.0	-0.0	-0.0	-0.0	5.16871976852417	-46.50923538208008	-921.06201171875	-0.0	-0.0	-0.0	-0.0	-0.0	-0.0	302979.6875	-56434.30859375	2180.906494140625
0.0105	-0.0	-0.0	-0.0	-0.0	-0.0	-0.0	5.056514739990234	-45.50360107421875	-923.042236328125	-0.0	-0.0	-0.0	-0.0	-0.0	-0.0	303824.0	-55955.71875	1900.275390625
0.011	-0.0	-0.0	-0.0	-0.0	-0.0	-0.0	4.962006092071533	-45.04405975341797	-925.834228515625	-0.0	-0.0	-0.0	-0.0	-0.0	-0.0	304627.625	-55219.45703125	1807.55615234375
0.0115	-0.0	-0.0	-0.0	-0.0	-0.0	-0.0	4.482893466949463	-44.68480682373047	-928.5332641601562	-0.0	-0.0	-0.0	-0.0	-0.0	-0.0	305128.96875	-54686.7265625	1526.450927734375
0.012	-0.0	-0.0	-0.0	1.9611215591430664	0.1507200300693512	-6.171369552612305	3.660891771316528	-44.80900192260742	-932.1166381835938	-0.0	-0.0	-0.0	-0.0	-0.0	-0.0	306022.6875	-53913.3671875	1209.5504150390625
0.0125	-0.0	-0.0	-0.0	6.064243316650391	0.306181252002716	-21.037090301513672	2.5077016353607178	-44.87387847900391	-932.35400390625	-0.0	-0.0	-0.0	-0.0	-0.0	-0.0	306498.0625	-53662.26171875	720.40869140625
0.013000000000000001	-0.0	-0.0	-0.0	6.165719032287598	0.0118062794208526	-23.709836959838867	0.9654392600059508	-45.72687530517578	-935.8202514648438	-0.0	-0.0	-0.0	-0.0	-0.0	-0.0	307137.0625	-52878.3359375	167.0562286376953
0.0135	-0.0	-0.0	-0.0	7.621451377868652	-0.5480022430419922	-27.652801513671875	-0.2112490236759185	-46.36189651489258	-937.3778686523438	-0.0	-0.0	-0.0	-0.0	-0.0	-0.0	308211.71875	-52182.1640625	-392.8647766113281
0.014	-0.0	-0.0	-0.0	9.787778854370115	-0.9542988538742064	-33.250694274902344	-1.3474241495132446	-46.41664505004883	-939.9161376953124	-0.0	-0.0	-0.0	-0.0	-0.0	-0.0	308419.9375	-51401.55859375	-762.3687133789062
0.0145	-0.0	-0.0	-0.0	12.068596839904783	-1.8077635765075684	-36.98313903808594	-1.9441269636154173	-46.93024444580078	-940.8333129882812	-0.0	-0.0	-0.0	-0.0	-0.0	-0.0	309301.78125	-50901.3515625	-1146.0689697265625
0.015	-0.0	-0.0	-0.0	13.611018180847168	-2.330209970474243	-42.12880706787109	-2.693189859390259	-47.461334228515625	-941.5330810546876	-0.0	-0.0	-0.0	-0.0	-0.0	-0.0	309373.25	-50519.61328125	-1429.780517578125
0.0155	-0.0	-0.0	-0.0	14.75832748413086	-2.941807270050049	-46.06418228149414	-3.096926212310791	-47.517066955566406	-942.4866333007812	-0.0	-0.0	-0.0	-0.0	-0.0	-0.0	309269.3125	-49774.8203125	-1734.7861328125
0.016	-0.0	-0.0	-0.0	14.9104642868042	-3.222006797790528	-50.55346298217773	-3.411244630813598	-47.54119873046875	-941.7249145507812	-0.0	-0.0	-0.0	-0.0	-0.0	-0.0	308711.9375	-49221.30078125	-1921.10498046875
0.0165	-0.0	-0.0	-0.0	14.937363624572754	-3.2843122482299805	-56.2037467956543	-3.597007274627685	-47.428749084472656	-938.6151123046876	-0.0	-0.0	-0.0	-0.0	-0.0	-0.0	308121.21875	-48825.16015625	-1969.609130859375
0.017	-0.0	-0.0	-0.0	15.050827980041504	-4.276446342468262	-64.17681121826172	-3.847610473632813	-47.42008972167969	-935.6304931640624	-0.0	-0.0	-0.0	-0.0	-0.0	-0.0	307440.21875	-48153.1171875	-2226.205810546875
0.0175	-0.0	-0.0	-0.0	15.076576232910156	-4.505810260772705	-71.33324432373047	-3.8788540363311768	-47.06007766723633	-931.956298828125	-0.0	-0.0	-0.0	-0.0	-0.0	-0.0	306085.6875	-47572.77734375	-2366.337158203125
0.018000000000000002	-0.0	-0.0	-0.0	14.708126068115234	-3.832607269287109	-78.40594482421875	-3.9185733795166016	-46.74653625488281	-926.96142578125	-0.0	-0.0	-0.0	-0.0	-0.0	-0.0	304373.40625	-46884.09765625	-2668.05859375
0.0185	-0.0	-0.0	-0.0	13.344246864318848	-3.5102219581604004	-86.79208374023438	-4.193950176239014	-46.30500030517578	-921.2551879882812	-0.0	-0.0	-0.0	-0.0	-0.0	-0.0	302184.875	-46070.3125	-2813.25
0.019	-0.0	-0.0	-0.0	12.556268692016602	-2.8297793865203857	-96.75709533691406	-4.48474645614624	-45.853790283203125	-912.8555297851562	-0.0	-0.0	-0.0	-0.0	-0.0	-0.0	300273.0	-45497.03125	-3057.022705078125
0.0195	-0.0	-0.0	-0.0	11.13631820678711	-1.7936538457870483	-107.9699249267578	-4.282771110534668	-45.04405975341797	-906.1455078125	-0.0	-0.0	-0.0	-0.0	-0.0	-0.0	297641.4375	-44705.58984375	-3224.756103515625
0.02	-0.0	-0.0	-0.0	8.810166358947754	-0.9065778255462646	-117.21283721923828	-4.322102546691895	-44.23469543457031	-898.6189575195312	-0.0	-0.0	-0.0	-0.0	-0.0	-0.0	294859.25	-44037.58984375	-3269.085693359375
0.0205	-0.0	-0.0	-0.0	7.0262603759765625	-0.5454578995704651	-128.9952850341797	-4.041538238525391	-43.415287017822266	-887.7793579101562	-0.0	-0.0	-0.0	-0.0	-0.0	-0.0	291912.40625	-43320.046875	-3497.6884765625
0.021	-0.0	-0.0	-0.0	5.882639408111572	-0.382737398147583	-139.15289306640625	-4.222627639770508	-42.68410873413086	-878.6190795898438	-0.0	-0.0	-0.0	-0.0	-0.0	-0.0	288799.78125	-42908.8515625	-3540.304443359375
0.021500000000000002	-0.0	-0.0	-0.0	4.308413028717041	0.4822124242782593	-152.48756408691406	-3.914200782775879	-41.87840270996094	-870.140869140625	-0.0	-0.0	-0.0	-0.0	-0.0	-0.0	285646.65625	-42302.96484375	-3573.10546875
0.022	-0.0	-0.0	-0.0	3.059516429901123	1.1485707759857178	-162.9845428466797	-3.623309373855591	-40.8929443359375	-859.5130615234375	-0.0	-0.0	-0.0	-0.0	-0.0	-0.0	282624.3125	-41375.22265625	-3614.379150390625
0.0225	-0.0	-0.0	-0.0	2.445030450820923	1.97077476978302	-174.78482055664062	-3.371009826660156	-39.64288330078125	-848.22412109375	-0.0	-0.0	-0.0	-0.0	-0.0	-0.0	279085.625	-40782.51171875	-3547.04052734375
0.023	-0.0	-0.0	-0.0	2.2399959564208984	3.129288673400879	-187.01412963867188	-2.266175985336304	-38.56982803344727	-836.6131591796875	-0.0	-0.0	-0.0	-0.0	-0.0	-0.0	275717.34375	-40276.69140625	-3524.64794921875
